<?xml version="1.0" encoding="UTF-8" standalone="no"?>
<svg
   xmlns:dc="http://purl.org/dc/elements/1.1/"
   xmlns:cc="http://creativecommons.org/ns#"
   xmlns:rdf="http://www.w3.org/1999/02/22-rdf-syntax-ns#"
   xmlns:svg="http://www.w3.org/2000/svg"
   xmlns="http://www.w3.org/2000/svg"
   xmlns:sodipodi="http://sodipodi.sourceforge.net/DTD/sodipodi-0.dtd"
   xmlns:inkscape="http://www.inkscape.org/namespaces/inkscape"
   height="512pt"
   viewBox="-105 0 512 512.00002"
   width="512pt"
   version="1.1"
   id="svg5312"
   sodipodi:docname="mouse-scroll.svg"
   inkscape:version="0.92.4 (5da689c313, 2019-01-14)">
  <metadata
     id="metadata5318">
    <rdf:RDF>
      <cc:Work
         rdf:about="">
        <dc:format>image/svg+xml</dc:format>
        <dc:type
           rdf:resource="http://purl.org/dc/dcmitype/StillImage" />
        <dc:title></dc:title>
      </cc:Work>
    </rdf:RDF>
  </metadata>
  <defs
     id="defs5316" />
  <sodipodi:namedview
     pagecolor="#ffffff"
     bordercolor="#666666"
     borderopacity="1"
     objecttolerance="10"
     gridtolerance="10"
     guidetolerance="10"
     inkscape:pageopacity="0"
     inkscape:pageshadow="2"
     inkscape:window-width="1920"
     inkscape:window-height="1001"
     id="namedview5314"
     showgrid="false"
     inkscape:zoom="0.9777961"
     inkscape:cx="300.74378"
     inkscape:cy="331.4663"
     inkscape:window-x="-9"
     inkscape:window-y="-9"
     inkscape:window-maximized="1"
     inkscape:current-layer="svg5312" />
  <path
     d="m150.601562 0c-83.042968 0-150.601562 67.558594-150.601562 150.601562v210.796876c0 83.042968 67.558594 150.601562 150.601562 150.601562 83.042969 0 150.601563-67.558594 150.601563-150.601562v-210.796876c0-83.042968-67.558594-150.601562-150.601563-150.601562zm119.882813 361.398438c0 66.101562-53.78125 119.882812-119.882813 119.882812-66.101562 0-119.882812-53.78125-119.882812-119.882812v-210.796876c0-66.101562 53.78125-119.882812 119.882812-119.882812 66.101563 0 119.882813 53.78125 119.882813 119.882812zm0 0"
     id="path5308"
     style="fill:#000000;fill-opacity:0.94901961" />
  <path
     d="m150.605469 101.851562c-8.484375 0-15.359375 6.875-15.359375 15.359376v70.695312c0 8.480469 6.875 15.359375 15.359375 15.359375 8.480469 0 15.359375-6.878906 15.359375-15.359375v-70.695312c0-8.484376-6.875-15.359376-15.359375-15.359376zm0 0"
     id="path5310"
     style="fill:#49b0da;fill-opacity:1" />
  <path
     style="fill:#49b0da;fill-opacity:1;stroke-width:1.44632769"
     d="m 330.13835,266.8856 c -8.99346,-5.4842 -9.28561,-7.47632 -9.28313,-63.29918 0.003,-56.23036 0.15287,-57.19141 9.97436,-63.75259 8.58717,-5.73661 20.80587,-3.08698 26.14451,5.66945 2.78991,4.57599 2.91916,7.17636 2.92433,58.83346 l 0.005,54.04586 -5.61515,5.61515 c -4.98723,4.98723 -6.40244,5.61455 -12.65537,5.60975 -4.33432,-0.003 -8.75238,-1.04948 -11.49495,-2.7219 z"
     id="path5865"
     inkscape:connector-curvature="0"
     transform="matrix(0.74999999,0,0,0.74999999,-105,0)" />
  <path
     style="fill:#41636d;fill-opacity:1;stroke-width:1.02270806"
     d="M 319.15253,681.02097 C 288.43594,677.5675 255.72865,665.70616 230.79111,648.97658 178.731,614.05156 146.56975,559.86715 141.21506,498.06125 139.81728,481.92758 139.85304,200.90558 141.25494,184.60121 147.84434,107.96558 196.43125,42.663924 267.94648,14.325593 305.65421,-0.61631378 349.71138,-3.323841 390.23074,6.8106317 463.32025,25.091367 521.74437,86.167651 536.8218,160.05622 c 4.14043,20.29065 4.25839,25.31111 4.25839,181.24096 0,163.56889 -0.0265,164.46235 -5.53966,186.93396 -14.21648,57.94605 -51.87459,105.48609 -104.80505,132.30713 -14.33031,7.2615 -25.85336,11.55794 -41.81238,15.59006 -21.25313,5.3697 -48.52035,7.28181 -69.77057,4.89264 z m 38.31011,-39.82433 c 27.73973,-3.17772 53.1618,-12.65342 75.2817,-28.06012 11.07684,-7.71511 31.60855,-28.24682 39.32366,-39.32366 11.75065,-16.8708 21.54895,-39.40575 25.46859,-58.57479 3.58967,-17.55532 3.75376,-26.17636 3.43174,-180.29877 -0.35714,-170.93398 0.15584,-159.1657 -8.0148,-183.87064 C 474.84833,96.325338 431.34689,57.181708 373.86741,43.912145 359.42158,40.577218 330.64318,40.025525 314.55034,42.775014 248.74028,54.018778 197.1536,103.83274 183.69916,169.12962 c -3.21292,15.59292 -3.58856,33.61009 -3.59554,172.45729 -0.007,139.48072 0.33934,155.86323 3.64328,172.32631 11.25218,56.06819 53.33303,102.86548 108.30386,120.44261 21.64103,6.9198 44.16222,9.27508 65.41188,6.84081 z"
     id="path5867"
     inkscape:connector-curvature="0"
     transform="matrix(0.74999999,0,0,0.74999999,-105,0)" />
  <path
     style="stroke-width:0.33494788"
     d="m 148.99546,368.6748 c -12.71234,0 -23.05465,-10.69673 -23.05465,-23.84471 0,-13.14796 10.34231,-23.8447 23.05465,-23.8447 12.71232,0 23.05463,10.69674 23.05463,23.8447 0,13.14798 -10.34231,23.84471 -23.05463,23.84471 z m 1.2518,-23.89117 c -5.44815,0 -0.58141,-5.58838 -0.58141,0.0464 0,5.63485 -5.58205,0.0464 -0.13391,0.0464 5.44815,0 -0.1339,5.40342 -0.1339,-0.23143 0,-5.63484 6.29737,0.1385 0.84922,0.1385 z m 33.70661,51.87192 -34.62907,1.56458 v 0 0 l -33.64068,-0.54266 33.64101,34.79352 z m 0,-102.96964 -34.62907,-35.81543 -33.97003,35.13415 33.97003,-0.56303 v 0 0 z"
     id="path7792"
     inkscape:connector-curvature="0"
     sodipodi:nodetypes="sssssssssscccccccccccccc" />
  <path
     style="fill:#41636d;fill-opacity:1;stroke-width:0.18186817"
     d="m 145.13547,368.24803 c -3.21939,-0.58002 -6.73124,-2.1004 -9.47797,-4.1033 -1.83274,-1.3364 -4.4391,-4.15267 -5.78153,-6.24714 -7.65991,-11.95101 -3.43379,-27.95628 9.08988,-34.42547 5.24494,-2.7093 12.03886,-3.10984 17.65652,-1.04091 7.58909,2.79499 13.20842,9.50868 14.92068,17.82651 0.40452,1.96515 0.44908,6.8498 0.0801,8.78552 -0.89067,4.67304 -2.93433,8.75134 -6.10332,12.17976 -4.41887,4.78063 -10.32393,7.36447 -16.71838,7.31536 -1.18027,-0.009 -2.82997,-0.13972 -3.66601,-0.29033 z"
     id="path7801"
     inkscape:connector-curvature="0" />
  <path
     style="fill:#41636d;fill-opacity:1;stroke-width:0.18186817"
     d="m 132.61704,415.05817 -16.72024,-17.30874 7.1532,0.11869 c 3.93425,0.0653 11.3378,0.19574 16.45234,0.28988 l 9.29914,0.17117 16.45235,-0.74463 c 9.04879,-0.40954 16.87564,-0.72044 17.393,-0.69088 l 0.94064,0.0537 -17.1251,17.70975 -17.1251,17.70975 z"
     id="path7803"
     inkscape:connector-curvature="0" />
  <path
     style="fill:#41636d;fill-opacity:1;stroke-width:0.18186817"
     d="m 166.59505,292.97928 -16.36292,-0.62114 -17.22895,0.28884 c -9.47592,0.15885 -17.25844,0.25831 -17.2945,0.22102 -0.0361,-0.0373 7.51593,-7.9088 16.78221,-17.49223 l 16.84779,-17.42443 17.25637,17.84846 c 13.42739,13.88809 17.15727,17.84316 16.80966,17.82454 -0.2457,-0.0132 -7.81004,-0.30344 -16.80966,-0.64506 z"
     id="path7805"
     inkscape:connector-curvature="0" />
</svg>
